<svg width="44" height="55" viewBox="0 0 44 55" fill="none" xmlns="http://www.w3.org/2000/svg">
<path d="M37.4901 46.1394H30.9707V33.8023C30.9707 30.8604 30.9272 27.0732 27.5799 27.0732C24.1844 27.0732 23.6648 30.2785 23.6648 33.5881V46.1385H17.1454V20.7685H23.404V24.2355H23.4917C24.118 22.9415 25.0231 21.8769 26.1105 21.1552C27.1979 20.4336 28.427 20.0818 29.6668 20.1374C36.2745 20.1374 37.4928 25.3893 37.4928 32.2218L37.4901 46.1394ZM9.78931 17.3006C9.04105 17.3007 8.30953 17.0328 7.68729 16.5305C7.06505 16.0283 6.58007 15.3145 6.2936 14.4792C6.00712 13.6439 5.93204 12.7247 6.07789 11.8378C6.22374 10.951 6.58396 10.1363 7.11297 9.49686C7.64198 8.85739 8.31604 8.42184 9.0499 8.24528C9.78376 8.06873 10.5445 8.15909 11.2358 8.50496C11.9272 8.85083 12.5181 9.43665 12.934 10.1884C13.3498 10.9401 13.5718 11.8239 13.5719 12.7281C13.572 13.3285 13.4743 13.9229 13.2842 14.4776C13.0942 15.0323 12.8156 15.5364 12.4643 15.961C12.1131 16.3856 11.696 16.7224 11.2371 16.9522C10.7781 17.1821 10.2861 17.3004 9.78931 17.3006ZM13.049 46.1394H6.52281V20.7685H13.049V46.1394ZM40.7403 0.841513H3.24681C2.39582 0.829908 1.57578 1.22703 0.966973 1.94562C0.358164 2.66421 0.0103859 3.64547 0 4.67377V50.1678C0.0100305 51.1966 0.357604 52.1785 0.966393 52.8978C1.57518 53.6172 2.3954 54.0151 3.24681 54.0041H40.7403C41.5934 54.017 42.4159 53.6203 43.0271 52.901C43.6383 52.1816 43.9882 51.1986 44 50.1678V4.67049C43.9878 3.64015 43.6377 2.65777 43.0265 1.9392C42.4153 1.22063 41.593 0.82464 40.7403 0.838229" fill="#0A66C2"/>
</svg>
