<svg width="58" height="46" viewBox="0 0 58 46" fill="none" xmlns="http://www.w3.org/2000/svg">
<g clip-path="url(#clip0_39_277)">
<path d="M56.7879 7.18305C56.1209 4.35553 54.1558 2.12899 51.6602 1.37333C47.1372 3.8147e-06 29 3.8147e-06 29 3.8147e-06C29 3.8147e-06 10.8629 3.8147e-06 6.33976 1.37333C3.84435 2.12899 1.87892 4.35553 1.21198 7.18305C0 12.3077 0 23 0 23C0 23 0 33.6921 1.21198 38.8173C1.87892 41.6445 3.84435 43.871 6.33976 44.627C10.8629 46 29 46 29 46C29 46 47.1372 46 51.6602 44.627C54.1558 43.871 56.1209 41.6445 56.7879 38.8173C58 33.6921 58 23 58 23C58 23 58 12.3077 56.7879 7.18305Z" fill="#ED1D24"/>
<path d="M23.0682 32.708L38.2273 23.0007L23.0682 13.2925V32.708Z" fill="white"/>
</g>
<defs>
<clipPath id="clip0_39_277">
<rect width="58" height="46" fill="white"/>
</clipPath>
</defs>
</svg>
